<svg xmlns="http://www.w3.org/2000/svg" width="240" height="36" viewBox="0 0 240 36">
    <g fill="none" fill-rule="evenodd">
        <path fill="#D52B1E" d="M41.577 24.153v1.76c0 1.506-.42 2.556-1.214 3.143-.84.586-1.72.881-2.726.881h-.019a2.177 2.177 0 0 1-2.16-2.221c0-.88.338-1.512 1.048-1.974.378-.226.992-.418 1.784-.547.192-.031.383-.068.572-.116l.954-.239a7.458 7.458 0 0 0 1.76-.687zm38.817-.423h11.529v-3.9H80.394v3.9zm-12.023-4.573c.08-.001.16 0 .242.002 1.342-.042 2.473.42 3.435 1.384a4.849 4.849 0 0 1 1.303 2.596 4.768 4.768 0 0 1-.028 1.786c-.192.912-.624 1.73-1.316 2.455-.921.968-2.052 1.424-3.394 1.424-1.299 0-2.43-.456-3.352-1.424-.924-.966-1.427-2.099-1.427-3.398 0-1.382.503-2.518 1.427-3.44.864-.902 1.913-1.366 3.11-1.385zm-9.229-4.32s-4.348.417-5.914 3.02v-2.223l-4.149-.04v17.45h4.318v-8.347c0-1.429.21-2.41.548-3.064.333-.648.856-1.186 1.508-1.676 1.406-1.055 3.729-.67 3.729-.67l-.04-4.45zm9.47-.042c-2.472 0-4.61.884-6.37 2.687-1.805 1.805-2.683 3.982-2.683 6.5 0 2.517.878 4.696 2.683 6.458 1.76 1.806 3.898 2.726 6.37 2.726 2.474 0 4.653-.92 6.455-2.726 1.761-1.762 2.642-3.941 2.642-6.458 0-2.518-.88-4.695-2.642-6.5-1.802-1.803-3.981-2.687-6.454-2.687zm-29.364-.043c-.117 0-.234 0-.352.003-2.934-.044-4.989.755-6.162 2.307-.753.963-1.13 2.225-1.258 3.818h4.361c.082-.754.336-1.259.628-1.593.435-.556 1.13-.852 2.124-.846.106 0 .213.002.32 0 .855-.023 1.52.144 1.998.423.469.236.683.693.744 1.334a1.29 1.29 0 0 1-.437 1.13 1.668 1.668 0 0 1-.853.396l-3.06.494c-1.55.213-2.805.588-3.772 1.136-1.633.964-2.428 2.514-2.387 4.742-.04 1.546.462 2.808 1.465 3.73.88.757 2.096 1.173 3.566 1.218 2.388-.045 4.272-.632 5.613-1.806v1.806h4.363V20.207c0-2.098-.76-3.564-2.182-4.32-1.416-.746-2.976-1.127-4.72-1.135zm-15.023 18.29h4.36V10.31h-4.36v22.734zm-12.76-22.734l-.235.001c-3.14-.04-5.743 1.05-7.921 3.313C1.088 15.846 0 18.486 0 21.632c0 3.103 1.088 5.833 3.309 8.054 2.178 2.18 4.78 3.273 7.921 3.273 2.517 0 4.824-.757 6.833-2.31 1.97-1.593 3.27-3.563 3.94-5.996h-4.568a7.811 7.811 0 0 1-.893 1.398c-.872 1.09-2.044 1.912-3.383 2.31a6.723 6.723 0 0 1-1.929.278c-1.927 0-3.56-.714-4.904-2.059-1.38-1.383-2.052-3.014-2.011-4.947-.04-1.928.632-3.566 2.011-4.948 1.344-1.342 2.977-2.055 4.904-2.055 1.343 0 2.558.376 3.732 1.132 1.049.714 1.887 1.72 2.473 2.893h4.568c-.67-2.431-1.97-4.446-3.94-5.995-1.947-1.546-4.172-2.341-6.598-2.352zm74.756-8.136L75.699 12.698l2.765 2.769L88.989 4.938l-2.768-2.766zm-19.031 9.1h3.897V0H67.19v11.273z"/>
        <path fill="#000" fill-rule="nonzero" d="M112.54 24.223v-.446c-.002-3.596-.085-5.346-1.813-7.071-1.16-1.158-2.67-1.812-4.635-1.812-1.965 0-3.477.654-4.635 1.812-1.746 1.743-1.813 3.51-1.814 7.182v.335c.003 3.596.086 5.346 1.814 7.071 1.158 1.158 2.67 1.812 4.635 1.812 1.964 0 3.476-.654 4.635-1.812 1.728-1.725 1.81-3.475 1.813-7.071zM109.82 24v.21c-.007 3.38-.17 4.437-1.058 5.349a3.629 3.629 0 0 1-2.67 1.132 3.629 3.629 0 0 1-2.67-1.132c-.882-.956-1.058-2.012-1.058-5.559v-.21c.007-3.38.194-4.437 1.058-5.374.68-.704 1.587-1.107 2.67-1.107s1.99.403 2.67 1.107c.907.93 1.058 2.037 1.058 5.584zm18.867.171v-.342c-.003-2.785-.077-4.942-1.36-6.52-1.26-1.56-2.847-2.264-5.089-2.264h-6.297v17.91h6.297c2.242 0 3.83-.705 5.089-2.264 1.283-1.578 1.357-3.735 1.36-6.52zm-2.72-.171v.237c-.006 2.528-.103 4.119-.958 5.07-.756.88-1.788 1.233-3.073 1.233h-3.275V17.46h3.275c1.285 0 2.317.352 3.073 1.233.882.98.957 2.64.957 5.307zm19.068 8.955l-6.575-17.91h-2.191l-6.575 17.91h2.897l1.235-3.597h7.078l1.234 3.597h2.897zm-4.887-5.911h-5.516l2.796-7.949 2.72 7.949zm23.578 5.91v-2.44h-8.64V15.046h-2.72v17.91h11.36zm4.735 0V20.203h-2.569v12.753h2.57zm.076-15.268V14.97h-2.72v2.716h2.72zm12.821 11.37c0-2.239-1.385-3.396-4.03-3.622l-1.788-.151c-1.26-.126-1.764-.579-1.764-1.46 0-.98.756-1.634 2.318-1.634 1.209 0 2.342.251 3.148.93l1.613-1.634c-1.184-1.032-2.796-1.434-4.736-1.434-2.67 0-4.811 1.383-4.811 3.899 0 2.238 1.36 3.295 3.778 3.521l2.04.176c1.235.126 1.713.63 1.713 1.51 0 1.207-1.209 1.76-2.796 1.76-1.26 0-2.645-.277-3.677-1.333l-1.688 1.685c1.511 1.484 3.275 1.837 5.365 1.837 3.048 0 5.315-1.384 5.315-4.05zm7.583 3.899v-2.189h-1.058c-.958 0-1.411-.553-1.411-1.484v-7.118h2.469v-1.962h-2.47v-3.647h-2.568v3.647h-1.461v1.962h1.46v7.244c0 1.836 1.109 3.547 3.502 3.547h1.537zm12.695-5.635V26.24c0-3.723-1.99-6.188-5.416-6.188-3.274 0-5.415 2.364-5.415 6.515 0 4.854 2.544 6.54 5.743 6.54 2.242 0 3.476-.68 4.786-1.988l-1.637-1.534c-.907.906-1.663 1.308-3.099 1.308-2.116 0-3.25-1.358-3.25-3.572h8.288zm-2.544-1.786h-5.743l.002-.07c.026-.723.08-1.116.314-1.64l.011-.025c.428-.956 1.31-1.61 2.544-1.61 1.197 0 2.073.64 2.506 1.581l.013.029c.252.553.303.956.353 1.735zm15.668 7.42v-8.15c0-1.433-.302-2.64-1.285-3.596-.755-.73-1.839-1.157-3.148-1.157-1.285 0-2.52.478-3.401 1.434v-1.283h-2.519v12.753h2.57v-7.773c0-1.962 1.208-2.842 2.644-2.842 1.436 0 2.57.855 2.57 2.842v7.773h2.569zm13.502-5.634V26.24c0-3.723-1.99-6.188-5.416-6.188-3.275 0-5.416 2.364-5.416 6.515 0 4.854 2.544 6.54 5.743 6.54 2.242 0 3.476-.68 4.786-1.988l-1.637-1.534c-.907.906-1.663 1.308-3.098 1.308-2.116 0-3.25-1.358-3.25-3.572h8.288zm-2.545-1.786h-5.743l.003-.07c.025-.723.079-1.116.313-1.64l.012-.025c.428-.956 1.31-1.61 2.544-1.61 1.197 0 2.073.64 2.506 1.581l.013.029c.252.553.302.956.352 1.735zM240 21.258l-1.94 1.937-.038-.038c-.561-.552-1.014-.817-1.876-.817-1.385 0-2.544 1.107-2.544 2.867v7.748h-2.57V20.202h2.52v1.383c.654-.905 1.964-1.534 3.4-1.534 1.234 0 2.166.327 3.048 1.207z"/>
    </g>
</svg>
